<svg width="252" height="264" viewBox="0 0 252 264" fill="none" xmlns="http://www.w3.org/2000/svg">
<g clip-path="url(#clip0_23_156)">
<path d="M154.019 127.058L129.147 152.475L24.1194 259.794C21.3621 262.618 17.825 264.03 14.2878 264.03C10.4165 264.03 6.54514 262.348 3.73214 259.013C-1.8103 252.463 -1.08616 242.218 5.29182 236.63L129.147 128.56L142.794 116.662L154.019 127.058Z" fill="url(#paint0_linear_23_156)"/>
<path d="M128.061 153.767L103.58 178.764L101.324 153.076L114.72 141.389L128.061 153.767Z" fill="#3A81D6" fill-opacity="0.8"/>
<path d="M252 87.7296C252 136.191 215.57 175.489 170.674 175.489C142.377 175.489 117.45 159.896 102.883 136.221C94.3329 122.341 89.3475 105.666 89.3475 87.7296C89.3475 39.268 125.777 0 170.674 0C190.95 0 209.471 7.99181 223.703 21.2113C241.027 37.3151 252 61.1403 252 87.7296Z" fill="url(#paint1_linear_23_156)"/>
<path d="M170.674 156.081C205.668 156.081 234.036 125.479 234.036 87.7296C234.036 49.9804 205.668 19.3786 170.674 19.3786C135.68 19.3786 107.312 49.9804 107.312 87.7296C107.312 125.479 135.68 156.081 170.674 156.081Z" fill="white"/>
<path opacity="0.06" d="M252 87.7296C252 136.191 215.57 175.489 170.674 175.489C142.377 175.489 117.45 159.896 102.883 136.221C194.598 128.169 218.773 44.3455 223.731 21.2113C241.027 37.3151 252 61.1403 252 87.7296Z" fill="#1A6FB5" fill-opacity="0.5"/>
<path d="M170.674 87.8798C178.026 87.8798 183.987 81.4503 183.987 73.5186C183.987 65.5869 178.026 59.1574 170.674 59.1574C163.321 59.1574 157.361 65.5869 157.361 73.5186C157.361 81.4503 163.293 87.8798 170.674 87.8798ZM170.674 95.0605C161.789 95.0605 144.048 99.8676 144.048 109.422V113.027C144.048 115.01 145.552 116.632 147.39 116.632H194.013C195.851 116.632 197.355 115.01 197.355 113.027V109.422C197.3 99.8976 179.558 95.0605 170.674 95.0605Z" fill="url(#paint2_linear_23_156)"/>
</g>
<defs>
<linearGradient id="paint0_linear_23_156" x1="15.5475" y1="247.358" x2="155.771" y2="129.186" gradientUnits="userSpaceOnUse">
<stop stop-color="#67C3F3"/>
<stop offset="1" stop-color="#5A98F2"/>
</linearGradient>
<linearGradient id="paint1_linear_23_156" x1="137.037" y1="6.19918" x2="206.822" y2="151.631" gradientUnits="userSpaceOnUse">
<stop stop-color="#67C3F3"/>
<stop offset="1" stop-color="#5A98F2"/>
</linearGradient>
<linearGradient id="paint2_linear_23_156" x1="151.424" y1="83.2912" x2="200.985" y2="105.699" gradientUnits="userSpaceOnUse">
<stop stop-color="#B0F4FF"/>
<stop offset="0.071077" stop-color="#A6F1FF"/>
<stop offset="0.2937" stop-color="#8BE8FD"/>
<stop offset="0.5209" stop-color="#78E1FD"/>
<stop offset="0.7536" stop-color="#6DDDFC"/>
<stop offset="1" stop-color="#69DCFC"/>
</linearGradient>
<clipPath id="clip0_23_156">
<rect width="252" height="264" fill="white"/>
</clipPath>
</defs>
</svg>
