<svg width="189" height="255" viewBox="0 0 189 255" fill="none" xmlns="http://www.w3.org/2000/svg">
<g clip-path="url(#clip0_42_1)">
<path d="M189 11.5697V243.473C189 249.872 183.756 255.042 177.265 255.042H11.7346C5.24403 255 0 249.83 0 243.473V11.5697C0 5.17035 5.24403 0 11.7346 0H177.308C183.756 0 189 5.17035 189 11.5697Z" fill="url(#paint0_linear_42_1)"/>
<path d="M176.96 21.3305V233.669C176.96 239.529 172.352 244.263 166.649 244.263H21.2008C15.4976 244.224 10.8898 239.49 10.8898 233.669V21.3305C10.8898 15.471 15.4976 10.7368 21.2008 10.7368H166.687C172.352 10.7368 176.96 15.471 176.96 21.3305Z" fill="url(#paint1_linear_42_1)"/>
<path d="M73.1585 48.9912V59.5438C73.1585 60.3066 72.5567 60.8999 71.783 60.8999H58.6729C57.8992 60.8999 57.2975 61.4933 57.2975 62.2561V75.182C57.2975 75.9448 56.6957 76.5381 55.922 76.5381H45.219C44.4453 76.5381 43.8435 75.9448 43.8435 75.182V62.2561C43.8435 61.4933 43.2417 60.8999 42.468 60.8999H29.4009C28.6272 60.8999 28.0255 60.3066 28.0255 59.5438V48.9912C28.0255 48.2283 28.6272 47.635 29.4009 47.635H42.511C43.2847 47.635 43.8865 47.0417 43.8865 46.2789V33.353C43.8865 32.5901 44.4883 31.9968 45.262 31.9968H55.965C56.7387 31.9968 57.3404 32.5901 57.3404 33.353V46.2789C57.3404 47.0417 57.9422 47.635 58.7159 47.635H71.783C72.5567 47.635 73.1585 48.2283 73.1585 48.9912Z" fill="url(#paint2_linear_42_1)"/>
<path opacity="0.5" d="M159.47 106.501H29.5299C28.6702 106.501 27.9825 105.823 27.9825 104.975V100.101C27.9825 99.2538 28.6702 98.5757 29.5299 98.5757H159.47C160.33 98.5757 161.018 99.2538 161.018 100.101V104.975C160.975 105.823 160.33 106.501 159.47 106.501Z" fill="url(#paint3_linear_42_1)"/>
<path d="M159.47 45.7704H94.9943C94.1346 45.7704 93.4469 45.0923 93.4469 44.2447V39.4134C93.4469 38.5658 94.1346 37.8877 94.9943 37.8877H159.47C160.33 37.8877 161.018 38.5658 161.018 39.4134V44.2871C160.975 45.0923 160.33 45.7704 159.47 45.7704Z" fill="url(#paint4_linear_42_1)"/>
<path opacity="0.5" d="M140.385 66.3669H94.9943C94.1346 66.3669 93.4469 65.6888 93.4469 64.8412V59.9676C93.4469 59.12 94.1346 58.4419 94.9943 58.4419H140.385C141.245 58.4419 141.933 59.12 141.933 59.9676V64.8412C141.89 65.6888 141.245 66.3669 140.385 66.3669Z" fill="url(#paint5_linear_42_1)"/>
<path opacity="0.5" d="M159.47 129.64H29.5299C28.6702 129.64 27.9825 128.962 27.9825 128.114V123.241C27.9825 122.393 28.6702 121.715 29.5299 121.715H159.47C160.33 121.715 161.018 122.393 161.018 123.241V128.114C160.975 128.962 160.33 129.64 159.47 129.64Z" fill="url(#paint6_linear_42_1)"/>
<path opacity="0.5" d="M159.47 152.78H29.5299C28.6702 152.78 27.9825 152.101 27.9825 151.254V146.38C27.9825 145.533 28.6702 144.854 29.5299 144.854H159.47C160.33 144.854 161.018 145.533 161.018 146.38V151.296C160.975 152.101 160.33 152.78 159.47 152.78Z" fill="url(#paint7_linear_42_1)"/>
<path opacity="0.5" d="M159.47 175.961H29.5299C28.6702 175.961 27.9825 175.283 27.9825 174.436V169.562C27.9825 168.714 28.6702 168.036 29.5299 168.036H159.47C160.33 168.036 161.018 168.714 161.018 169.562V174.436C160.975 175.283 160.33 175.961 159.47 175.961Z" fill="url(#paint8_linear_42_1)"/>
<path opacity="0.5" d="M159.47 199.101H29.5299C28.6702 199.101 27.9825 198.423 27.9825 197.575V192.701C27.9825 191.854 28.6702 191.176 29.5299 191.176H159.47C160.33 191.176 161.018 191.854 161.018 192.701V197.575C160.975 198.423 160.33 199.101 159.47 199.101Z" fill="url(#paint9_linear_42_1)"/>
<path opacity="0.5" d="M159.47 222.24H29.5299C28.6702 222.24 27.9825 221.562 27.9825 220.715V215.841C27.9825 214.993 28.6702 214.315 29.5299 214.315H159.47C160.33 214.315 161.018 214.993 161.018 215.841V220.715C160.975 221.562 160.33 222.24 159.47 222.24Z" fill="url(#paint10_linear_42_1)"/>
<path opacity="0.1" d="M189 11.5697V243.473C189 249.872 183.756 255.042 177.265 255.042H11.7346C5.24403 255 0 249.83 0 243.473V239.447C100.969 198.338 147.993 40.6847 158.61 0H177.265C183.756 0 189 5.17035 189 11.5697Z" fill="#1A6FB5" fill-opacity="0.4"/>
</g>
<defs>
<linearGradient id="paint0_linear_42_1" x1="258.634" y1="338.211" x2="-11.4586" y2="-18.4557" gradientUnits="userSpaceOnUse">
<stop offset="0.3061" stop-color="#5BA7FC"/>
<stop offset="1" stop-color="#69B8FC"/>
</linearGradient>
<linearGradient id="paint1_linear_42_1" x1="23.4788" y1="18.9119" x2="155.185" y2="211.199" gradientUnits="userSpaceOnUse">
<stop offset="0.3061" stop-color="white"/>
<stop offset="1" stop-color="white"/>
</linearGradient>
<linearGradient id="paint2_linear_42_1" x1="27.2246" y1="25.5" x2="67.2264" y2="91.7673" gradientUnits="userSpaceOnUse">
<stop stop-color="#B0F4FF"/>
<stop offset="0.368525" stop-color="#80E4FD"/>
<stop offset="1" stop-color="#6CDDFC"/>
</linearGradient>
<linearGradient id="paint3_linear_42_1" x1="28.0157" y1="102.556" x2="160.994" y2="102.556" gradientUnits="userSpaceOnUse">
<stop stop-color="#6CBCFC"/>
<stop offset="1" stop-color="#458DFC"/>
</linearGradient>
<linearGradient id="paint4_linear_42_1" x1="93.4481" y1="41.8319" x2="160.994" y2="41.8319" gradientUnits="userSpaceOnUse">
<stop stop-color="#6CBCFC"/>
<stop offset="1" stop-color="#458DFC"/>
</linearGradient>
<linearGradient id="paint5_linear_42_1" x1="93.4481" y1="62.4389" x2="141.91" y2="62.4389" gradientUnits="userSpaceOnUse">
<stop stop-color="#6CBCFC"/>
<stop offset="1" stop-color="#458DFC"/>
</linearGradient>
<linearGradient id="paint6_linear_42_1" x1="28.0157" y1="125.706" x2="160.994" y2="125.706" gradientUnits="userSpaceOnUse">
<stop stop-color="#6CBCFC"/>
<stop offset="1" stop-color="#458DFC"/>
</linearGradient>
<linearGradient id="paint7_linear_42_1" x1="28.0157" y1="148.856" x2="160.994" y2="148.856" gradientUnits="userSpaceOnUse">
<stop stop-color="#6CBCFC"/>
<stop offset="1" stop-color="#458DFC"/>
</linearGradient>
<linearGradient id="paint8_linear_42_1" x1="28.0157" y1="172.006" x2="160.994" y2="172.006" gradientUnits="userSpaceOnUse">
<stop stop-color="#6CBCFC"/>
<stop offset="1" stop-color="#458DFC"/>
</linearGradient>
<linearGradient id="paint9_linear_42_1" x1="28.0157" y1="195.156" x2="160.994" y2="195.156" gradientUnits="userSpaceOnUse">
<stop stop-color="#6CBCFC"/>
<stop offset="1" stop-color="#458DFC"/>
</linearGradient>
<linearGradient id="paint10_linear_42_1" x1="28.0157" y1="218.306" x2="160.994" y2="218.306" gradientUnits="userSpaceOnUse">
<stop stop-color="#6CBCFC"/>
<stop offset="1" stop-color="#458DFC"/>
</linearGradient>
<clipPath id="clip0_42_1">
<rect width="189" height="255" fill="white"/>
</clipPath>
</defs>
</svg>
