<svg width="140" height="181" viewBox="0 0 140 181" fill="none" xmlns="http://www.w3.org/2000/svg">
<g clip-path="url(#clip0_27_36)">
<path d="M140 56.3882L139.566 141.14L139.494 157.533C139.422 170.559 126.264 181.068 110.07 181L29.1712 180.66C13.0132 180.558 -0.0722719 169.947 2.34717e-05 156.887L0.506091 55.742C0.542239 45.1989 9.21768 36.2884 21.0741 33.3295L21.1103 27.888V25.0992L119.685 25.5413L119.649 33.7717C131.469 36.8666 140.036 45.8111 140 56.3882Z" fill="url(#paint0_linear_27_36)"/>
<path d="M127.023 3.77508V4.5233L126.951 13.3658L126.878 22.0383V23.0926C126.878 24.7251 125.433 26.0515 123.697 26.0515H122.938L118.167 26.0175L112.925 25.9835L108.154 25.9495L102.913 25.9154L98.0687 25.8474L92.8273 25.8134L88.0558 25.7794L82.7782 25.7454L77.9706 25.7114L72.7292 25.6774L67.9577 25.6094L62.7163 25.5753L57.9448 25.5413L52.6672 25.5073L47.8596 25.4733L42.6543 25.4393L37.8828 25.4053L32.6414 25.3713L27.8337 25.3373L22.5923 25.3033L17.7847 25.2693H17.0256C15.2905 25.2693 13.8807 23.9089 13.8807 22.2764V22.2424V21.4942L14.0253 4.01315V2.95885C14.0253 1.32638 15.4712 0 17.2425 0H18.0016L28.0506 0.0680195L38.0997 0.136039L42.9073 0.170049L48.1487 0.204059L52.9202 0.238068L62.9332 0.340098L68.1746 0.374108L72.9461 0.408117L78.1875 0.442127L82.959 0.476137L88.2004 0.510147L92.9719 0.544156L98.2133 0.578166L102.985 0.612176L108.299 0.680195L113.07 0.714205L118.311 0.748215L123.119 0.782225H123.878C125.649 0.816235 127.023 2.14262 127.023 3.77508Z" fill="url(#paint1_linear_27_36)"/>
<path d="M127.023 4.55728L126.951 13.3658L126.878 22.0383L122.577 22.0043L116.866 21.9703L111.624 21.9363H105.877L100.635 21.9023L94.9239 21.8683L89.6824 21.8343H83.935L78.6935 21.8002L72.9461 21.7662L67.7408 21.7322H61.9933L56.7519 21.6982L51.0044 21.6642L45.763 21.6302H40.0517L34.8103 21.5962L29.0628 21.5622L23.8214 21.5282H18.11L13.8807 21.4942L14.0253 4.01312L24.0744 4.04713L35.0271 4.11515L40.2686 4.14916L46.016 4.18317H51.2574L62.2102 4.25119L67.9577 4.2852H73.1991L78.9466 4.31921L84.1518 4.35322L89.8993 4.38723H95.1408L100.888 4.42124L106.093 4.45525L111.841 4.48926H117.082L122.83 4.52327L127.023 4.55728Z" fill="url(#paint2_linear_27_36)"/>
<path d="M139.894 74.2827L0.40007 73.662L0.107578 131.853L139.602 132.473L139.894 74.2827Z" fill="#F7F9FC"/>
<path d="M139.919 74.2825L0.424728 73.662L0.372094 84.137L139.866 84.7575L139.919 74.2825Z" fill="#FBFCF7"/>
<path d="M54.7999 97.0593L45.7991 97.0253L45.8353 88.5229L33.4366 88.4889L33.4005 96.9573L24.3997 96.9233L24.3274 108.555L33.3282 108.589L33.292 117.091L45.6907 117.125L45.7268 108.657L54.7276 108.691L54.7999 97.0593Z" fill="url(#paint3_linear_27_36)"/>
<path d="M115.962 99.8822L71.3555 99.6781C70.1627 99.6781 69.1867 98.7598 69.1867 97.6375V96.6852C69.1867 95.5629 70.1627 94.6447 71.3555 94.6447L115.962 94.8487C117.155 94.8487 118.131 95.767 118.131 96.8893V97.8416C118.131 98.9639 117.155 99.8822 115.962 99.8822Z" fill="url(#paint4_linear_27_36)"/>
<path opacity="0.5" d="M115.926 112.364L71.3194 112.16C70.1265 112.16 69.1505 111.241 69.1505 110.119V109.167C69.1505 108.044 70.1265 107.126 71.3194 107.126L115.926 107.33C117.119 107.33 118.095 108.249 118.095 109.371V110.323C118.095 111.445 117.119 112.364 115.926 112.364Z" fill="url(#paint5_linear_27_36)"/>
<path opacity="0.08" d="M13.8807 3.77509V4.5233L13.953 13.3658L14.0253 22.0043V23.0586C14.0253 24.6911 15.4712 26.0175 17.2063 26.0175H17.9654L22.7731 25.9835L28.0145 25.9495L32.786 25.9154L38.0274 25.8814L42.7989 25.8474L48.0403 25.8134L52.8118 25.7794L58.0532 25.7454L62.8609 25.7114L68.1023 25.6774L72.8738 25.6434L78.1152 25.6094L82.8867 25.5753L88.1281 25.5413L92.9357 25.5073L98.1772 25.4733L102.949 25.4393L108.19 25.4053L112.962 25.3713L118.203 25.3373L123.011 25.3033H123.77C125.505 25.3033 126.915 23.9429 126.915 22.3104V22.2764V21.5282C70.9941 23.8068 17.0256 0.782227 17.0256 0.782227C15.2905 0.816236 13.8807 2.14262 13.8807 3.77509Z" fill="#1A6FB5"/>
</g>
<defs>
<linearGradient id="paint0_linear_27_36" x1="2.27321e-05" y1="24.1333" x2="119.186" y2="198.97" gradientUnits="userSpaceOnUse">
<stop stop-color="#6CBCFC"/>
<stop offset="1" stop-color="#458DFC"/>
</linearGradient>
<linearGradient id="paint1_linear_27_36" x1="-1425.7" y1="-85.0296" x2="-63.3284" y2="15.8273" gradientUnits="userSpaceOnUse">
<stop stop-color="#B0F4FF"/>
<stop offset="0.0525488" stop-color="#A9F2FF"/>
<stop offset="0.2879" stop-color="#8DE8FE"/>
<stop offset="0.5247" stop-color="#79E1FD"/>
<stop offset="0.7618" stop-color="#6DDDFC"/>
<stop offset="1" stop-color="#69DCFC"/>
</linearGradient>
<linearGradient id="paint2_linear_27_36" x1="13.8964" y1="13.0173" x2="127.028" y2="13.0173" gradientUnits="userSpaceOnUse">
<stop stop-color="#B0F4FF"/>
<stop offset="0.0525488" stop-color="#A9F2FF"/>
<stop offset="0.2879" stop-color="#8DE8FE"/>
<stop offset="0.5247" stop-color="#79E1FD"/>
<stop offset="0.7618" stop-color="#6DDDFC"/>
<stop offset="1" stop-color="#69DCFC"/>
</linearGradient>
<linearGradient id="paint3_linear_27_36" x1="49.742" y1="91.7677" x2="29.9746" y2="115.996" gradientUnits="userSpaceOnUse">
<stop stop-color="#6CBCFC"/>
<stop offset="1" stop-color="#458DFC"/>
</linearGradient>
<linearGradient id="paint4_linear_27_36" x1="118.561" y1="97.2523" x2="65.3783" y2="97.2523" gradientUnits="userSpaceOnUse">
<stop stop-color="#6CBCFC"/>
<stop offset="1" stop-color="#458DFC"/>
</linearGradient>
<linearGradient id="paint5_linear_27_36" x1="69.1472" y1="109.733" x2="118.095" y2="109.733" gradientUnits="userSpaceOnUse">
<stop stop-color="#6CBCFC"/>
<stop offset="1" stop-color="#458DFC"/>
</linearGradient>
<clipPath id="clip0_27_36">
<rect width="140" height="181" fill="white"/>
</clipPath>
</defs>
</svg>
