<svg width="132" height="123" viewBox="0 0 132 123" fill="none" xmlns="http://www.w3.org/2000/svg">
<g opacity="0.3">
<mask id="mask0_21_5" style="mask-type:alpha" maskUnits="userSpaceOnUse" x="0" y="0" width="11" height="12">
<path d="M5.22838 11.1502C8.11594 11.1502 10.4568 8.65407 10.4568 5.57505C10.4568 2.49603 8.11594 0 5.22838 0C2.34082 0 0 2.49603 0 5.57505C0 8.65407 2.34082 11.1502 5.22838 11.1502Z" fill="url(#paint0_linear_21_5)"/>
</mask>
<g mask="url(#mask0_21_5)">
<path d="M5.22838 11.1502C8.11594 11.1502 10.4568 8.65407 10.4568 5.57505C10.4568 2.49603 8.11594 0 5.22838 0C2.34082 0 0 2.49603 0 5.57505C0 8.65407 2.34082 11.1502 5.22838 11.1502Z" fill="url(#paint1_linear_21_5)"/>
</g>
<mask id="mask1_21_5" style="mask-type:alpha" maskUnits="userSpaceOnUse" x="30" y="0" width="11" height="12">
<path d="M35.5095 11.1502C38.397 11.1502 40.7378 8.65407 40.7378 5.57505C40.7378 2.49603 38.397 0 35.5095 0C32.6219 0 30.2811 2.49603 30.2811 5.57505C30.2811 8.65407 32.6219 11.1502 35.5095 11.1502Z" fill="url(#paint2_linear_21_5)"/>
</mask>
<g mask="url(#mask1_21_5)">
<path d="M35.5095 11.1502C38.397 11.1502 40.7378 8.65407 40.7378 5.57505C40.7378 2.49603 38.397 0 35.5095 0C32.6219 0 30.2811 2.49603 30.2811 5.57505C30.2811 8.65407 32.6219 11.1502 35.5095 11.1502Z" fill="url(#paint3_linear_21_5)"/>
</g>
<mask id="mask2_21_5" style="mask-type:alpha" maskUnits="userSpaceOnUse" x="60" y="0" width="12" height="12">
<path d="M65.7905 11.1502C68.6781 11.1502 71.0189 8.65407 71.0189 5.57505C71.0189 2.49603 68.6781 0 65.7905 0C62.9029 0 60.5621 2.49603 60.5621 5.57505C60.5621 8.65407 62.9029 11.1502 65.7905 11.1502Z" fill="url(#paint4_linear_21_5)"/>
</mask>
<g mask="url(#mask2_21_5)">
<path d="M65.7905 11.1502C68.6781 11.1502 71.0189 8.65407 71.0189 5.57505C71.0189 2.49603 68.6781 0 65.7905 0C62.9029 0 60.5621 2.49603 60.5621 5.57505C60.5621 8.65407 62.9029 11.1502 65.7905 11.1502Z" fill="url(#paint5_linear_21_5)"/>
</g>
<mask id="mask3_21_5" style="mask-type:alpha" maskUnits="userSpaceOnUse" x="90" y="0" width="12" height="12">
<path d="M96.0716 11.1502C98.9592 11.1502 101.3 8.65407 101.3 5.57505C101.3 2.49603 98.9592 0 96.0716 0C93.184 0 90.8432 2.49603 90.8432 5.57505C90.8432 8.65407 93.184 11.1502 96.0716 11.1502Z" fill="url(#paint6_linear_21_5)"/>
</mask>
<g mask="url(#mask3_21_5)">
<path d="M96.0716 11.1502C98.9592 11.1502 101.3 8.65407 101.3 5.57505C101.3 2.49603 98.9592 0 96.0716 0C93.184 0 90.8432 2.49603 90.8432 5.57505C90.8432 8.65407 93.184 11.1502 96.0716 11.1502Z" fill="url(#paint7_linear_21_5)"/>
</g>
<mask id="mask4_21_5" style="mask-type:alpha" maskUnits="userSpaceOnUse" x="121" y="0" width="11" height="12">
<path d="M126.353 11.1502C129.24 11.1502 131.581 8.65407 131.581 5.57505C131.581 2.49603 129.24 0 126.353 0C123.465 0 121.124 2.49603 121.124 5.57505C121.124 8.65407 123.465 11.1502 126.353 11.1502Z" fill="url(#paint8_linear_21_5)"/>
</mask>
<g mask="url(#mask4_21_5)">
<path d="M126.353 11.1502C129.24 11.1502 131.581 8.65407 131.581 5.57505C131.581 2.49603 129.24 0 126.353 0C123.465 0 121.124 2.49603 121.124 5.57505C121.124 8.65407 123.465 11.1502 126.353 11.1502Z" fill="url(#paint9_linear_21_5)"/>
</g>
<mask id="mask5_21_5" style="mask-type:alpha" maskUnits="userSpaceOnUse" x="0" y="27" width="11" height="13">
<path d="M5.22838 39.1416C8.11594 39.1416 10.4568 36.6456 10.4568 33.5666C10.4568 30.4876 8.11594 27.9915 5.22838 27.9915C2.34082 27.9915 0 30.4876 0 33.5666C0 36.6456 2.34082 39.1416 5.22838 39.1416Z" fill="url(#paint10_linear_21_5)"/>
</mask>
<g mask="url(#mask5_21_5)">
<path d="M5.22838 39.1416C8.11594 39.1416 10.4568 36.6456 10.4568 33.5666C10.4568 30.4876 8.11594 27.9915 5.22838 27.9915C2.34082 27.9915 0 30.4876 0 33.5666C0 36.6456 2.34082 39.1416 5.22838 39.1416Z" fill="url(#paint11_linear_21_5)"/>
</g>
<mask id="mask6_21_5" style="mask-type:alpha" maskUnits="userSpaceOnUse" x="30" y="27" width="11" height="13">
<path d="M35.5095 39.1416C38.397 39.1416 40.7378 36.6456 40.7378 33.5666C40.7378 30.4876 38.397 27.9915 35.5095 27.9915C32.6219 27.9915 30.2811 30.4876 30.2811 33.5666C30.2811 36.6456 32.6219 39.1416 35.5095 39.1416Z" fill="url(#paint12_linear_21_5)"/>
</mask>
<g mask="url(#mask6_21_5)">
<path d="M35.5095 39.1416C38.397 39.1416 40.7378 36.6456 40.7378 33.5666C40.7378 30.4876 38.397 27.9915 35.5095 27.9915C32.6219 27.9915 30.2811 30.4876 30.2811 33.5666C30.2811 36.6456 32.6219 39.1416 35.5095 39.1416Z" fill="url(#paint13_linear_21_5)"/>
</g>
<mask id="mask7_21_5" style="mask-type:alpha" maskUnits="userSpaceOnUse" x="60" y="27" width="12" height="13">
<path d="M65.7905 39.1416C68.6781 39.1416 71.0189 36.6456 71.0189 33.5666C71.0189 30.4876 68.6781 27.9915 65.7905 27.9915C62.903 27.9915 60.5621 30.4876 60.5621 33.5666C60.5621 36.6456 62.903 39.1416 65.7905 39.1416Z" fill="url(#paint14_linear_21_5)"/>
</mask>
<g mask="url(#mask7_21_5)">
<path d="M65.7905 39.1416C68.6781 39.1416 71.0189 36.6456 71.0189 33.5666C71.0189 30.4876 68.6781 27.9915 65.7905 27.9915C62.903 27.9915 60.5621 30.4876 60.5621 33.5666C60.5621 36.6456 62.903 39.1416 65.7905 39.1416Z" fill="url(#paint15_linear_21_5)"/>
</g>
<mask id="mask8_21_5" style="mask-type:alpha" maskUnits="userSpaceOnUse" x="90" y="27" width="12" height="13">
<path d="M96.0716 39.1416C98.9592 39.1416 101.3 36.6456 101.3 33.5666C101.3 30.4876 98.9592 27.9915 96.0716 27.9915C93.184 27.9915 90.8432 30.4876 90.8432 33.5666C90.8432 36.6456 93.184 39.1416 96.0716 39.1416Z" fill="url(#paint16_linear_21_5)"/>
</mask>
<g mask="url(#mask8_21_5)">
<path d="M96.0716 39.1416C98.9592 39.1416 101.3 36.6456 101.3 33.5666C101.3 30.4876 98.9592 27.9915 96.0716 27.9915C93.184 27.9915 90.8432 30.4876 90.8432 33.5666C90.8432 36.6456 93.184 39.1416 96.0716 39.1416Z" fill="url(#paint17_linear_21_5)"/>
</g>
<mask id="mask9_21_5" style="mask-type:alpha" maskUnits="userSpaceOnUse" x="121" y="27" width="11" height="13">
<path d="M126.353 39.1416C129.24 39.1416 131.581 36.6456 131.581 33.5666C131.581 30.4876 129.24 27.9915 126.353 27.9915C123.465 27.9915 121.124 30.4876 121.124 33.5666C121.124 36.6456 123.465 39.1416 126.353 39.1416Z" fill="url(#paint18_linear_21_5)"/>
</mask>
<g mask="url(#mask9_21_5)">
<path d="M126.353 39.1416C129.24 39.1416 131.581 36.6456 131.581 33.5666C131.581 30.4876 129.24 27.9915 126.353 27.9915C123.465 27.9915 121.124 30.4876 121.124 33.5666C121.124 36.6456 123.465 39.1416 126.353 39.1416Z" fill="url(#paint19_linear_21_5)"/>
</g>
<mask id="mask10_21_5" style="mask-type:alpha" maskUnits="userSpaceOnUse" x="0" y="55" width="11" height="13">
<path d="M5.22838 67.0751C8.11594 67.0751 10.4568 64.5791 10.4568 61.5C10.4568 58.421 8.11594 55.9249 5.22838 55.9249C2.34082 55.9249 0 58.421 0 61.5C0 64.5791 2.34082 67.0751 5.22838 67.0751Z" fill="url(#paint20_linear_21_5)"/>
</mask>
<g mask="url(#mask10_21_5)">
<path d="M5.22838 67.0751C8.11594 67.0751 10.4568 64.5791 10.4568 61.5C10.4568 58.421 8.11594 55.9249 5.22838 55.9249C2.34082 55.9249 0 58.421 0 61.5C0 64.5791 2.34082 67.0751 5.22838 67.0751Z" fill="url(#paint21_linear_21_5)"/>
</g>
<mask id="mask11_21_5" style="mask-type:alpha" maskUnits="userSpaceOnUse" x="30" y="55" width="11" height="13">
<path d="M35.5095 67.0751C38.397 67.0751 40.7378 64.5791 40.7378 61.5C40.7378 58.421 38.397 55.9249 35.5095 55.9249C32.6219 55.9249 30.2811 58.421 30.2811 61.5C30.2811 64.5791 32.6219 67.0751 35.5095 67.0751Z" fill="url(#paint22_linear_21_5)"/>
</mask>
<g mask="url(#mask11_21_5)">
<path d="M35.5095 67.0751C38.397 67.0751 40.7378 64.5791 40.7378 61.5C40.7378 58.421 38.397 55.9249 35.5095 55.9249C32.6219 55.9249 30.2811 58.421 30.2811 61.5C30.2811 64.5791 32.6219 67.0751 35.5095 67.0751Z" fill="url(#paint23_linear_21_5)"/>
</g>
<mask id="mask12_21_5" style="mask-type:alpha" maskUnits="userSpaceOnUse" x="60" y="55" width="12" height="13">
<path d="M65.7905 67.0751C68.6781 67.0751 71.0189 64.5791 71.0189 61.5C71.0189 58.421 68.6781 55.9249 65.7905 55.9249C62.903 55.9249 60.5621 58.421 60.5621 61.5C60.5621 64.5791 62.903 67.0751 65.7905 67.0751Z" fill="url(#paint24_linear_21_5)"/>
</mask>
<g mask="url(#mask12_21_5)">
<path d="M65.7905 67.0751C68.6781 67.0751 71.0189 64.5791 71.0189 61.5C71.0189 58.421 68.6781 55.9249 65.7905 55.9249C62.903 55.9249 60.5621 58.421 60.5621 61.5C60.5621 64.5791 62.903 67.0751 65.7905 67.0751Z" fill="url(#paint25_linear_21_5)"/>
</g>
<mask id="mask13_21_5" style="mask-type:alpha" maskUnits="userSpaceOnUse" x="90" y="55" width="12" height="13">
<path d="M96.0716 67.0751C98.9592 67.0751 101.3 64.5791 101.3 61.5C101.3 58.421 98.9592 55.9249 96.0716 55.9249C93.184 55.9249 90.8432 58.421 90.8432 61.5C90.8432 64.5791 93.184 67.0751 96.0716 67.0751Z" fill="url(#paint26_linear_21_5)"/>
</mask>
<g mask="url(#mask13_21_5)">
<path d="M96.0716 67.0751C98.9592 67.0751 101.3 64.5791 101.3 61.5C101.3 58.421 98.9592 55.9249 96.0716 55.9249C93.184 55.9249 90.8432 58.421 90.8432 61.5C90.8432 64.5791 93.184 67.0751 96.0716 67.0751Z" fill="url(#paint27_linear_21_5)"/>
</g>
<mask id="mask14_21_5" style="mask-type:alpha" maskUnits="userSpaceOnUse" x="121" y="55" width="11" height="13">
<path d="M126.353 67.0751C129.24 67.0751 131.581 64.5791 131.581 61.5C131.581 58.421 129.24 55.9249 126.353 55.9249C123.465 55.9249 121.124 58.421 121.124 61.5C121.124 64.5791 123.465 67.0751 126.353 67.0751Z" fill="url(#paint28_linear_21_5)"/>
</mask>
<g mask="url(#mask14_21_5)">
<path d="M126.353 67.0751C129.24 67.0751 131.581 64.5791 131.581 61.5C131.581 58.421 129.24 55.9249 126.353 55.9249C123.465 55.9249 121.124 58.421 121.124 61.5C121.124 64.5791 123.465 67.0751 126.353 67.0751Z" fill="url(#paint29_linear_21_5)"/>
</g>
<mask id="mask15_21_5" style="mask-type:alpha" maskUnits="userSpaceOnUse" x="0" y="83" width="11" height="13">
<path d="M5.22838 95.0666C8.11594 95.0666 10.4568 92.5705 10.4568 89.4915C10.4568 86.4124 8.11594 83.9164 5.22838 83.9164C2.34082 83.9164 0 86.4124 0 89.4915C0 92.5705 2.34082 95.0666 5.22838 95.0666Z" fill="url(#paint30_linear_21_5)"/>
</mask>
<g mask="url(#mask15_21_5)">
<path d="M5.22838 95.0666C8.11594 95.0666 10.4568 92.5705 10.4568 89.4915C10.4568 86.4124 8.11594 83.9164 5.22838 83.9164C2.34082 83.9164 0 86.4124 0 89.4915C0 92.5705 2.34082 95.0666 5.22838 95.0666Z" fill="url(#paint31_linear_21_5)"/>
</g>
<mask id="mask16_21_5" style="mask-type:alpha" maskUnits="userSpaceOnUse" x="30" y="83" width="11" height="13">
<path d="M35.5095 95.0666C38.397 95.0666 40.7378 92.5705 40.7378 89.4915C40.7378 86.4124 38.397 83.9164 35.5095 83.9164C32.6219 83.9164 30.2811 86.4124 30.2811 89.4915C30.2811 92.5705 32.6219 95.0666 35.5095 95.0666Z" fill="url(#paint32_linear_21_5)"/>
</mask>
<g mask="url(#mask16_21_5)">
<path d="M35.5095 95.0666C38.397 95.0666 40.7378 92.5705 40.7378 89.4915C40.7378 86.4124 38.397 83.9164 35.5095 83.9164C32.6219 83.9164 30.2811 86.4124 30.2811 89.4915C30.2811 92.5705 32.6219 95.0666 35.5095 95.0666Z" fill="url(#paint33_linear_21_5)"/>
</g>
<mask id="mask17_21_5" style="mask-type:alpha" maskUnits="userSpaceOnUse" x="60" y="83" width="12" height="13">
<path d="M65.7905 95.0666C68.6781 95.0666 71.0189 92.5705 71.0189 89.4915C71.0189 86.4124 68.6781 83.9164 65.7905 83.9164C62.903 83.9164 60.5621 86.4124 60.5621 89.4915C60.5621 92.5705 62.903 95.0666 65.7905 95.0666Z" fill="url(#paint34_linear_21_5)"/>
</mask>
<g mask="url(#mask17_21_5)">
<path d="M65.7905 95.0666C68.6781 95.0666 71.0189 92.5705 71.0189 89.4915C71.0189 86.4124 68.6781 83.9164 65.7905 83.9164C62.903 83.9164 60.5621 86.4124 60.5621 89.4915C60.5621 92.5705 62.903 95.0666 65.7905 95.0666Z" fill="url(#paint35_linear_21_5)"/>
</g>
<mask id="mask18_21_5" style="mask-type:alpha" maskUnits="userSpaceOnUse" x="90" y="83" width="12" height="13">
<path d="M96.0716 95.0666C98.9592 95.0666 101.3 92.5705 101.3 89.4915C101.3 86.4124 98.9592 83.9164 96.0716 83.9164C93.184 83.9164 90.8432 86.4124 90.8432 89.4915C90.8432 92.5705 93.184 95.0666 96.0716 95.0666Z" fill="url(#paint36_linear_21_5)"/>
</mask>
<g mask="url(#mask18_21_5)">
<path d="M96.0716 95.0666C98.9592 95.0666 101.3 92.5705 101.3 89.4915C101.3 86.4124 98.9592 83.9164 96.0716 83.9164C93.184 83.9164 90.8432 86.4124 90.8432 89.4915C90.8432 92.5705 93.184 95.0666 96.0716 95.0666Z" fill="url(#paint37_linear_21_5)"/>
</g>
<mask id="mask19_21_5" style="mask-type:alpha" maskUnits="userSpaceOnUse" x="121" y="83" width="11" height="13">
<path d="M126.353 95.0666C129.24 95.0666 131.581 92.5705 131.581 89.4915C131.581 86.4124 129.24 83.9164 126.353 83.9164C123.465 83.9164 121.124 86.4124 121.124 89.4915C121.124 92.5705 123.465 95.0666 126.353 95.0666Z" fill="url(#paint38_linear_21_5)"/>
</mask>
<g mask="url(#mask19_21_5)">
<path d="M126.353 95.0666C129.24 95.0666 131.581 92.5705 131.581 89.4915C131.581 86.4124 129.24 83.9164 126.353 83.9164C123.465 83.9164 121.124 86.4124 121.124 89.4915C121.124 92.5705 123.465 95.0666 126.353 95.0666Z" fill="url(#paint39_linear_21_5)"/>
</g>
<mask id="mask20_21_5" style="mask-type:alpha" maskUnits="userSpaceOnUse" x="0" y="111" width="11" height="12">
<path d="M5.22838 123C8.11594 123 10.4568 120.504 10.4568 117.425C10.4568 114.346 8.11594 111.85 5.22838 111.85C2.34082 111.85 0 114.346 0 117.425C0 120.504 2.34082 123 5.22838 123Z" fill="url(#paint40_linear_21_5)"/>
</mask>
<g mask="url(#mask20_21_5)">
<path d="M5.22838 123C8.11594 123 10.4568 120.504 10.4568 117.425C10.4568 114.346 8.11594 111.85 5.22838 111.85C2.34082 111.85 0 114.346 0 117.425C0 120.504 2.34082 123 5.22838 123Z" fill="url(#paint41_linear_21_5)"/>
</g>
<mask id="mask21_21_5" style="mask-type:alpha" maskUnits="userSpaceOnUse" x="30" y="111" width="11" height="12">
<path d="M35.5095 123C38.397 123 40.7378 120.504 40.7378 117.425C40.7378 114.346 38.397 111.85 35.5095 111.85C32.6219 111.85 30.2811 114.346 30.2811 117.425C30.2811 120.504 32.6219 123 35.5095 123Z" fill="url(#paint42_linear_21_5)"/>
</mask>
<g mask="url(#mask21_21_5)">
<path d="M35.5095 123C38.397 123 40.7378 120.504 40.7378 117.425C40.7378 114.346 38.397 111.85 35.5095 111.85C32.6219 111.85 30.2811 114.346 30.2811 117.425C30.2811 120.504 32.6219 123 35.5095 123Z" fill="url(#paint43_linear_21_5)"/>
</g>
<mask id="mask22_21_5" style="mask-type:alpha" maskUnits="userSpaceOnUse" x="60" y="111" width="12" height="12">
<path d="M65.7905 123C68.6781 123 71.0189 120.504 71.0189 117.425C71.0189 114.346 68.6781 111.85 65.7905 111.85C62.903 111.85 60.5621 114.346 60.5621 117.425C60.5621 120.504 62.903 123 65.7905 123Z" fill="url(#paint44_linear_21_5)"/>
</mask>
<g mask="url(#mask22_21_5)">
<path d="M65.7905 123C68.6781 123 71.0189 120.504 71.0189 117.425C71.0189 114.346 68.6781 111.85 65.7905 111.85C62.903 111.85 60.5621 114.346 60.5621 117.425C60.5621 120.504 62.903 123 65.7905 123Z" fill="url(#paint45_linear_21_5)"/>
</g>
<mask id="mask23_21_5" style="mask-type:alpha" maskUnits="userSpaceOnUse" x="90" y="111" width="12" height="12">
<path d="M96.0716 123C98.9592 123 101.3 120.504 101.3 117.425C101.3 114.346 98.9592 111.85 96.0716 111.85C93.184 111.85 90.8432 114.346 90.8432 117.425C90.8432 120.504 93.184 123 96.0716 123Z" fill="url(#paint46_linear_21_5)"/>
</mask>
<g mask="url(#mask23_21_5)">
<path d="M96.0716 123C98.9592 123 101.3 120.504 101.3 117.425C101.3 114.346 98.9592 111.85 96.0716 111.85C93.184 111.85 90.8432 114.346 90.8432 117.425C90.8432 120.504 93.184 123 96.0716 123Z" fill="url(#paint47_linear_21_5)"/>
</g>
<mask id="mask24_21_5" style="mask-type:alpha" maskUnits="userSpaceOnUse" x="121" y="111" width="11" height="12">
<path d="M126.353 123C129.24 123 131.581 120.504 131.581 117.425C131.581 114.346 129.24 111.85 126.353 111.85C123.465 111.85 121.124 114.346 121.124 117.425C121.124 120.504 123.465 123 126.353 123Z" fill="url(#paint48_linear_21_5)"/>
</mask>
<g mask="url(#mask24_21_5)">
<path d="M126.353 123C129.24 123 131.581 120.504 131.581 117.425C131.581 114.346 129.24 111.85 126.353 111.85C123.465 111.85 121.124 114.346 121.124 117.425C121.124 120.504 123.465 123 126.353 123Z" fill="url(#paint49_linear_21_5)"/>
</g>
</g>
<defs>
<linearGradient id="paint0_linear_21_5" x1="54.996" y1="140.256" x2="-25.1436" y2="-50.5244" gradientUnits="userSpaceOnUse">
<stop/>
<stop offset="1" stop-color="white"/>
</linearGradient>
<linearGradient id="paint1_linear_21_5" x1="54.996" y1="140.256" x2="-25.1436" y2="-50.5244" gradientUnits="userSpaceOnUse">
<stop stop-color="#97C3F9"/>
<stop offset="1" stop-color="#93C1F9"/>
</linearGradient>
<linearGradient id="paint2_linear_21_5" x1="81.2005" y1="129.249" x2="1.06102" y2="-61.5316" gradientUnits="userSpaceOnUse">
<stop/>
<stop offset="1" stop-color="white"/>
</linearGradient>
<linearGradient id="paint3_linear_21_5" x1="81.2005" y1="129.249" x2="1.06102" y2="-61.5316" gradientUnits="userSpaceOnUse">
<stop stop-color="#97C3F9"/>
<stop offset="1" stop-color="#93C1F9"/>
</linearGradient>
<linearGradient id="paint4_linear_21_5" x1="107.405" y1="118.242" x2="27.2654" y2="-72.5388" gradientUnits="userSpaceOnUse">
<stop/>
<stop offset="1" stop-color="white"/>
</linearGradient>
<linearGradient id="paint5_linear_21_5" x1="107.405" y1="118.242" x2="27.2654" y2="-72.5388" gradientUnits="userSpaceOnUse">
<stop stop-color="#97C3F9"/>
<stop offset="1" stop-color="#93C1F9"/>
</linearGradient>
<linearGradient id="paint6_linear_21_5" x1="133.609" y1="107.234" x2="53.4696" y2="-83.5467" gradientUnits="userSpaceOnUse">
<stop/>
<stop offset="1" stop-color="white"/>
</linearGradient>
<linearGradient id="paint7_linear_21_5" x1="133.609" y1="107.234" x2="53.4696" y2="-83.5467" gradientUnits="userSpaceOnUse">
<stop stop-color="#97C3F9"/>
<stop offset="1" stop-color="#93C1F9"/>
</linearGradient>
<linearGradient id="paint8_linear_21_5" x1="159.813" y1="96.2266" x2="79.674" y2="-94.5541" gradientUnits="userSpaceOnUse">
<stop/>
<stop offset="1" stop-color="white"/>
</linearGradient>
<linearGradient id="paint9_linear_21_5" x1="159.813" y1="96.2266" x2="79.674" y2="-94.5541" gradientUnits="userSpaceOnUse">
<stop stop-color="#97C3F9"/>
<stop offset="1" stop-color="#93C1F9"/>
</linearGradient>
<linearGradient id="paint10_linear_21_5" x1="46.0538" y1="144.012" x2="-34.0844" y2="-46.7672" gradientUnits="userSpaceOnUse">
<stop/>
<stop offset="1" stop-color="white"/>
</linearGradient>
<linearGradient id="paint11_linear_21_5" x1="46.0538" y1="144.012" x2="-34.0844" y2="-46.7672" gradientUnits="userSpaceOnUse">
<stop stop-color="#97C3F9"/>
<stop offset="1" stop-color="#93C1F9"/>
</linearGradient>
<linearGradient id="paint12_linear_21_5" x1="72.2581" y1="133.004" x2="-7.88004" y2="-57.7751" gradientUnits="userSpaceOnUse">
<stop/>
<stop offset="1" stop-color="white"/>
</linearGradient>
<linearGradient id="paint13_linear_21_5" x1="72.2581" y1="133.004" x2="-7.88004" y2="-57.7751" gradientUnits="userSpaceOnUse">
<stop stop-color="#97C3F9"/>
<stop offset="1" stop-color="#93C1F9"/>
</linearGradient>
<linearGradient id="paint14_linear_21_5" x1="98.4624" y1="121.997" x2="18.3243" y2="-68.7824" gradientUnits="userSpaceOnUse">
<stop/>
<stop offset="1" stop-color="white"/>
</linearGradient>
<linearGradient id="paint15_linear_21_5" x1="98.4624" y1="121.997" x2="18.3243" y2="-68.7824" gradientUnits="userSpaceOnUse">
<stop stop-color="#97C3F9"/>
<stop offset="1" stop-color="#93C1F9"/>
</linearGradient>
<linearGradient id="paint16_linear_21_5" x1="124.667" y1="110.99" x2="44.5286" y2="-79.7897" gradientUnits="userSpaceOnUse">
<stop/>
<stop offset="1" stop-color="white"/>
</linearGradient>
<linearGradient id="paint17_linear_21_5" x1="124.667" y1="110.99" x2="44.5286" y2="-79.7897" gradientUnits="userSpaceOnUse">
<stop stop-color="#97C3F9"/>
<stop offset="1" stop-color="#93C1F9"/>
</linearGradient>
<linearGradient id="paint18_linear_21_5" x1="150.871" y1="99.9823" x2="70.733" y2="-90.797" gradientUnits="userSpaceOnUse">
<stop/>
<stop offset="1" stop-color="white"/>
</linearGradient>
<linearGradient id="paint19_linear_21_5" x1="150.871" y1="99.9823" x2="70.733" y2="-90.797" gradientUnits="userSpaceOnUse">
<stop stop-color="#97C3F9"/>
<stop offset="1" stop-color="#93C1F9"/>
</linearGradient>
<linearGradient id="paint20_linear_21_5" x1="37.1113" y1="147.769" x2="-43.0282" y2="-43.0116" gradientUnits="userSpaceOnUse">
<stop/>
<stop offset="1" stop-color="white"/>
</linearGradient>
<linearGradient id="paint21_linear_21_5" x1="37.1113" y1="147.769" x2="-43.0282" y2="-43.0116" gradientUnits="userSpaceOnUse">
<stop stop-color="#97C3F9"/>
<stop offset="1" stop-color="#93C1F9"/>
</linearGradient>
<linearGradient id="paint22_linear_21_5" x1="63.3157" y1="136.762" x2="-16.8238" y2="-54.0191" gradientUnits="userSpaceOnUse">
<stop/>
<stop offset="1" stop-color="white"/>
</linearGradient>
<linearGradient id="paint23_linear_21_5" x1="63.3157" y1="136.762" x2="-16.8238" y2="-54.0191" gradientUnits="userSpaceOnUse">
<stop stop-color="#97C3F9"/>
<stop offset="1" stop-color="#93C1F9"/>
</linearGradient>
<linearGradient id="paint24_linear_21_5" x1="89.5201" y1="125.754" x2="9.38062" y2="-65.0264" gradientUnits="userSpaceOnUse">
<stop/>
<stop offset="1" stop-color="white"/>
</linearGradient>
<linearGradient id="paint25_linear_21_5" x1="89.5201" y1="125.754" x2="9.38062" y2="-65.0264" gradientUnits="userSpaceOnUse">
<stop stop-color="#97C3F9"/>
<stop offset="1" stop-color="#93C1F9"/>
</linearGradient>
<linearGradient id="paint26_linear_21_5" x1="115.724" y1="114.747" x2="35.5848" y2="-76.034" gradientUnits="userSpaceOnUse">
<stop/>
<stop offset="1" stop-color="white"/>
</linearGradient>
<linearGradient id="paint27_linear_21_5" x1="115.724" y1="114.747" x2="35.5848" y2="-76.034" gradientUnits="userSpaceOnUse">
<stop stop-color="#97C3F9"/>
<stop offset="1" stop-color="#93C1F9"/>
</linearGradient>
<linearGradient id="paint28_linear_21_5" x1="141.929" y1="103.739" x2="61.7892" y2="-87.0415" gradientUnits="userSpaceOnUse">
<stop/>
<stop offset="1" stop-color="white"/>
</linearGradient>
<linearGradient id="paint29_linear_21_5" x1="141.929" y1="103.739" x2="61.7892" y2="-87.0415" gradientUnits="userSpaceOnUse">
<stop stop-color="#97C3F9"/>
<stop offset="1" stop-color="#93C1F9"/>
</linearGradient>
<linearGradient id="paint30_linear_21_5" x1="28.169" y1="151.525" x2="-51.9706" y2="-39.2553" gradientUnits="userSpaceOnUse">
<stop/>
<stop offset="1" stop-color="white"/>
</linearGradient>
<linearGradient id="paint31_linear_21_5" x1="28.169" y1="151.525" x2="-51.9706" y2="-39.2553" gradientUnits="userSpaceOnUse">
<stop stop-color="#97C3F9"/>
<stop offset="1" stop-color="#93C1F9"/>
</linearGradient>
<linearGradient id="paint32_linear_21_5" x1="54.3734" y1="140.518" x2="-25.7662" y2="-50.2628" gradientUnits="userSpaceOnUse">
<stop/>
<stop offset="1" stop-color="white"/>
</linearGradient>
<linearGradient id="paint33_linear_21_5" x1="54.3734" y1="140.518" x2="-25.7662" y2="-50.2628" gradientUnits="userSpaceOnUse">
<stop stop-color="#97C3F9"/>
<stop offset="1" stop-color="#93C1F9"/>
</linearGradient>
<linearGradient id="paint34_linear_21_5" x1="80.5777" y1="129.51" x2="0.438228" y2="-61.2701" gradientUnits="userSpaceOnUse">
<stop/>
<stop offset="1" stop-color="white"/>
</linearGradient>
<linearGradient id="paint35_linear_21_5" x1="80.5777" y1="129.51" x2="0.438228" y2="-61.2701" gradientUnits="userSpaceOnUse">
<stop stop-color="#97C3F9"/>
<stop offset="1" stop-color="#93C1F9"/>
</linearGradient>
<linearGradient id="paint36_linear_21_5" x1="106.782" y1="118.503" x2="26.6425" y2="-72.2777" gradientUnits="userSpaceOnUse">
<stop/>
<stop offset="1" stop-color="white"/>
</linearGradient>
<linearGradient id="paint37_linear_21_5" x1="106.782" y1="118.503" x2="26.6425" y2="-72.2777" gradientUnits="userSpaceOnUse">
<stop stop-color="#97C3F9"/>
<stop offset="1" stop-color="#93C1F9"/>
</linearGradient>
<linearGradient id="paint38_linear_21_5" x1="132.986" y1="107.495" x2="52.8468" y2="-83.2852" gradientUnits="userSpaceOnUse">
<stop/>
<stop offset="1" stop-color="white"/>
</linearGradient>
<linearGradient id="paint39_linear_21_5" x1="132.986" y1="107.495" x2="52.8468" y2="-83.2852" gradientUnits="userSpaceOnUse">
<stop stop-color="#97C3F9"/>
<stop offset="1" stop-color="#93C1F9"/>
</linearGradient>
<linearGradient id="paint40_linear_21_5" x1="19.2266" y1="155.281" x2="-60.9129" y2="-35.499" gradientUnits="userSpaceOnUse">
<stop/>
<stop offset="1" stop-color="white"/>
</linearGradient>
<linearGradient id="paint41_linear_21_5" x1="19.2266" y1="155.281" x2="-60.9129" y2="-35.499" gradientUnits="userSpaceOnUse">
<stop stop-color="#97C3F9"/>
<stop offset="1" stop-color="#93C1F9"/>
</linearGradient>
<linearGradient id="paint42_linear_21_5" x1="45.431" y1="144.274" x2="-34.7085" y2="-46.5065" gradientUnits="userSpaceOnUse">
<stop/>
<stop offset="1" stop-color="white"/>
</linearGradient>
<linearGradient id="paint43_linear_21_5" x1="45.431" y1="144.274" x2="-34.7085" y2="-46.5065" gradientUnits="userSpaceOnUse">
<stop stop-color="#97C3F9"/>
<stop offset="1" stop-color="#93C1F9"/>
</linearGradient>
<linearGradient id="paint44_linear_21_5" x1="71.6353" y1="133.267" x2="-8.50412" y2="-57.5137" gradientUnits="userSpaceOnUse">
<stop/>
<stop offset="1" stop-color="white"/>
</linearGradient>
<linearGradient id="paint45_linear_21_5" x1="71.6353" y1="133.267" x2="-8.50412" y2="-57.5137" gradientUnits="userSpaceOnUse">
<stop stop-color="#97C3F9"/>
<stop offset="1" stop-color="#93C1F9"/>
</linearGradient>
<linearGradient id="paint46_linear_21_5" x1="97.8397" y1="122.259" x2="17.7002" y2="-68.5213" gradientUnits="userSpaceOnUse">
<stop/>
<stop offset="1" stop-color="white"/>
</linearGradient>
<linearGradient id="paint47_linear_21_5" x1="97.8397" y1="122.259" x2="17.7002" y2="-68.5213" gradientUnits="userSpaceOnUse">
<stop stop-color="#97C3F9"/>
<stop offset="1" stop-color="#93C1F9"/>
</linearGradient>
<linearGradient id="paint48_linear_21_5" x1="124.044" y1="111.252" x2="43.9045" y2="-79.5287" gradientUnits="userSpaceOnUse">
<stop/>
<stop offset="1" stop-color="white"/>
</linearGradient>
<linearGradient id="paint49_linear_21_5" x1="124.044" y1="111.252" x2="43.9045" y2="-79.5287" gradientUnits="userSpaceOnUse">
<stop stop-color="#97C3F9"/>
<stop offset="1" stop-color="#93C1F9"/>
</linearGradient>
</defs>
</svg>
